<?xml version="1.0" standalone="no"?>
<!DOCTYPE svg PUBLIC "-//W3C//DTD SVG 20010904//EN"
 "http://www.w3.org/TR/2001/REC-SVG-20010904/DTD/svg10.dtd">
<svg version="1.0" xmlns="http://www.w3.org/2000/svg"
 width="700.000000pt" height="700.000000pt" viewBox="0 0 700.000000 700.000000"
 preserveAspectRatio="xMidYMid meet">
<metadata>
Created by potrace 1.14, written by Peter Selinger 2001-2017
</metadata>
<g transform="translate(0.000000,700.000000) scale(0.100000,-0.100000)"
fill="#000000" stroke="none">
<path d="M3129 6886 c-2 -2 -45 -6 -96 -10 -80 -5 -139 -12 -283 -31 -303 -42
-630 -152 -777 -262 -50 -38 -133 -122 -133 -135 0 -5 747 -8 1661 -8 l1661 0
-44 37 c-204 171 -604 312 -1053 369 -22 3 -51 7 -65 10 -14 2 -59 6 -100 10
-41 3 -86 8 -100 11 -28 6 -665 15 -671 9z"/>
<path d="M1420 6110 c-19 -4 -51 -10 -70 -14 -19 -4 -71 -25 -115 -46 -84 -42
-155 -103 -258 -222 -63 -74 -71 -105 -33 -135 22 -18 106 -19 2542 -18 1385
1 2529 4 2541 9 61 20 26 104 -84 206 -123 113 -261 199 -348 217 -37 8 -552
8 -2780 2 -495 -1 -1003 0 -1130 3 -126 3 -246 2 -265 -2z"/>
<path d="M5865 5359 c-38 -3 -1227 -6 -2642 -6 -2825 -2 -2603 3 -2653 -60
-77 -99 -210 -385 -210 -452 0 -46 -4 -46 668 -51 l635 -5 18 -25 c39 -53 32
-122 -20 -201 -17 -25 -49 -56 -73 -69 l-42 -24 -652 0 -652 -1 -25 -23 c-24
-22 -49 -83 -61 -142 -2 -14 -14 -66 -25 -117 -36 -158 -32 -201 22 -226 28
-13 119 -15 677 -11 355 2 654 4 665 5 72 6 105 -13 105 -61 0 -43 -40 -83
-102 -102 -48 -15 -255 -63 -318 -74 -14 -3 -56 -11 -95 -19 -38 -7 -88 -16
-110 -20 -22 -3 -67 -10 -100 -15 -33 -5 -85 -12 -115 -15 -30 -4 -68 -8 -85
-11 -16 -3 -142 -8 -280 -11 -175 -4 -260 -9 -283 -19 -60 -24 -72 -97 -47
-289 2 -16 7 -61 10 -100 4 -38 8 -83 11 -100 2 -16 6 -50 8 -75 11 -119 19
-166 34 -182 20 -24 59 -23 67 1 3 10 13 28 23 39 9 12 28 36 42 54 102 134
275 251 466 313 94 31 148 41 429 80 136 19 133 18 249 49 316 84 482 190 567
361 25 50 45 109 53 155 14 79 13 256 -2 372 -28 219 29 410 153 509 43 34
165 95 205 103 14 2 45 9 70 14 25 6 65 13 90 17 25 3 61 7 80 10 112 15 147
18 330 30 85 5 134 7 495 21 241 10 565 10 765 0 85 -4 241 -9 345 -11 274 -7
562 -19 685 -30 142 -12 177 -16 230 -21 30 -3 66 -7 80 -9 14 -2 50 -6 80 -9
30 -4 64 -8 75 -10 11 -2 47 -7 80 -12 33 -4 62 -8 65 -9 3 0 32 -5 65 -9 32
-4 68 -10 80 -12 34 -7 69 -14 100 -19 29 -5 210 -43 247 -51 10 -2 28 -6 39
-9 12 -2 60 -14 108 -25 127 -31 126 -31 146 -17 9 8 17 24 17 38 -1 48 -107
273 -217 457 -72 121 -105 133 -368 136 -72 0 -163 -1 -202 -5z"/>
<path d="M4499 4585 c-2 -2 -67 -6 -144 -10 -77 -4 -160 -8 -185 -10 -25 -2
-90 -6 -145 -10 -55 -3 -122 -8 -150 -11 -27 -2 -70 -7 -95 -9 -25 -3 -70 -7
-100 -10 -170 -17 -279 -38 -371 -71 -95 -34 -150 -68 -204 -123 -73 -76 -103
-134 -131 -256 -13 -60 -13 -298 1 -375 21 -114 -1 -307 -45 -408 -67 -151
-220 -275 -415 -334 -88 -28 -159 -46 -195 -52 -19 -3 -46 -8 -60 -11 -14 -3
-113 -19 -220 -35 -236 -37 -252 -40 -260 -45 -3 -2 -17 -6 -31 -8 -96 -19
-288 -109 -397 -188 -196 -143 -373 -383 -458 -623 -67 -187 -67 -419 -1 -611
39 -113 120 -262 178 -329 37 -43 99 -31 99 20 0 38 50 196 85 272 115 244
310 416 606 533 87 34 306 100 379 113 14 2 46 9 73 15 26 6 64 14 85 17 20 3
114 21 207 39 277 55 387 98 481 190 100 98 141 216 138 395 -1 83 -14 273
-21 325 -27 194 18 356 130 467 98 96 226 143 482 174 79 9 190 22 205 22 455
23 1281 21 1510 -2 19 -2 78 -7 130 -11 52 -3 108 -8 124 -10 16 -2 57 -6 90
-9 34 -4 72 -8 86 -10 24 -4 82 -12 160 -22 19 -2 46 -6 60 -9 45 -9 74 -15
115 -21 68 -10 223 -43 382 -81 224 -54 228 -50 219 202 -3 88 -8 171 -10 185
-5 29 -13 91 -21 170 -18 168 -46 232 -128 285 -59 38 -335 104 -662 159 -93
16 -100 17 -250 35 -49 7 -106 14 -125 16 -19 3 -64 7 -100 10 -58 4 -108 9
-230 20 -19 2 -93 7 -165 10 -71 4 -155 8 -185 10 -30 2 -156 6 -280 10 -124
4 -228 9 -231 11 -3 2 -8 2 -10 -1z"/>
<path d="M4928 3225 c-2 -1 -46 -6 -98 -10 -52 -3 -97 -8 -100 -10 -3 -1 -27
-6 -55 -9 -131 -18 -339 -84 -416 -132 -58 -36 -120 -105 -147 -164 -43 -91
-51 -163 -50 -445 1 -346 -17 -433 -116 -564 -74 -97 -189 -166 -361 -216
-105 -30 -354 -81 -439 -90 -33 -3 -73 -8 -90 -10 -17 -3 -47 -7 -66 -9 -311
-38 -576 -225 -705 -499 -58 -120 -77 -213 -79 -367 -2 -194 30 -286 135 -389
94 -93 139 -90 213 13 117 162 248 255 453 319 72 23 98 29 186 42 17 2 111
16 207 30 371 54 581 134 717 273 73 75 134 184 149 267 21 121 23 173 9 335
-26 302 0 427 109 535 115 114 279 168 616 202 151 15 755 7 871 -12 13 -2 51
-6 84 -9 33 -3 69 -8 80 -10 11 -2 43 -7 70 -11 83 -11 240 -43 345 -70 129
-33 162 -32 200 3 26 23 39 56 86 212 88 292 124 430 124 476 0 53 -34 85
-117 109 -158 46 -480 118 -583 129 -14 2 -43 6 -65 10 -46 8 -88 13 -160 21
-27 3 -66 7 -85 10 -65 9 -216 21 -395 31 -122 6 -522 13 -527 9z"/>
<path d="M5668 1975 c-2 -1 -61 -5 -133 -9 -147 -7 -174 -10 -301 -36 -209
-43 -294 -92 -363 -208 -51 -87 -59 -141 -57 -412 2 -279 -4 -343 -39 -440
-85 -236 -349 -363 -885 -425 -195 -22 -359 -78 -491 -168 -148 -100 -187
-149 -149 -185 19 -17 37 -18 243 -15 259 4 226 3 352 14 95 9 127 14 185 24
14 2 41 6 60 9 255 37 580 142 859 278 482 235 900 567 1217 968 32 41 61 77
64 80 9 9 82 114 136 197 56 86 84 144 84 173 0 29 -55 68 -112 79 -192 40
-327 59 -478 67 -58 3 -124 7 -147 9 -23 1 -43 2 -45 0z"/>
</g>
</svg>
