<?xml version="1.0" encoding="utf-8"?>
<!-- Generator: Adobe Illustrator 21.0.2, SVG Export Plug-In . SVG Version: 6.00 Build 0)  -->
<svg version="1.1" id="Layer_1" xmlns="http://www.w3.org/2000/svg" xmlns:xlink="http://www.w3.org/1999/xlink" x="0px" y="0px"
	 viewBox="0 0 710 156" style="enable-background:new 0 0 710 156;" xml:space="preserve">
<style type="text/css">
	.st0{fill:#333333;}
	.st1{fill:#1B9EB0;}
</style>
<g>
	<g>
		<g>
			<path d="M183.5,24.7h7.4l17.3,42.3h0.6l17.3-42.3h7.4v50.9h-5.8V36.9h-0.5l-15.9,38.7h-5.6l-15.9-38.7h-0.5v38.7h-5.8V24.7z"/>
			<path d="M286.1,24.7v50.9h-6l-27.7-40h-0.5v40h-6.2V24.7h6l27.8,40.1h0.5V24.7H286.1z"/>
			<path d="M326.3,37.4c-0.3-2.5-1.5-4.5-3.6-5.9c-2.1-1.4-4.7-2.1-7.8-2.1c-2.3,0-4.2,0.4-5.9,1.1c-1.7,0.7-3,1.7-3.9,3
				c-0.9,1.3-1.4,2.7-1.4,4.4c0,1.4,0.3,2.5,1,3.5c0.7,1,1.5,1.8,2.5,2.4c1,0.6,2.1,1.2,3.2,1.6c1.1,0.4,2.2,0.7,3.1,1l5.2,1.4
				c1.3,0.3,2.8,0.8,4.4,1.4c1.6,0.6,3.2,1.4,4.7,2.5c1.5,1.1,2.7,2.4,3.7,4c1,1.6,1.5,3.7,1.5,6c0,2.8-0.7,5.2-2.2,7.5
				c-1.4,2.2-3.5,4-6.3,5.3c-2.7,1.3-6.1,2-10,2c-3.6,0-6.8-0.6-9.5-1.8c-2.7-1.2-4.7-2.8-6.3-4.9c-1.5-2.1-2.4-4.5-2.6-7.3h6.4
				c0.2,1.9,0.8,3.5,2,4.8c1.1,1.3,2.6,2.2,4.3,2.8c1.7,0.6,3.6,0.9,5.7,0.9c2.4,0,4.5-0.4,6.3-1.2s3.4-1.8,4.5-3.2s1.6-3,1.6-4.9
				c0-1.7-0.5-3.1-1.4-4.1c-0.9-1.1-2.2-1.9-3.7-2.6c-1.5-0.7-3.2-1.2-5-1.7l-6.3-1.8c-4-1.1-7.1-2.8-9.4-4.9
				c-2.3-2.1-3.5-4.9-3.5-8.3c0-2.9,0.8-5.3,2.3-7.5s3.6-3.8,6.3-5c2.6-1.2,5.6-1.8,8.8-1.8c3.3,0,6.2,0.6,8.8,1.8s4.6,2.8,6.1,4.8
				s2.3,4.3,2.4,6.9H326.3z"/>
			<path d="M343.1,75.6V24.7h17.2c4,0,7.2,0.7,9.8,2c2.6,1.4,4.4,3.2,5.7,5.6c1.2,2.4,1.8,5,1.8,8c0,3-0.6,5.7-1.8,8
				c-1.2,2.3-3.1,4.1-5.6,5.5c-2.5,1.3-5.8,2-9.7,2h-13.9v-5.6h13.7c2.7,0,4.9-0.4,6.6-1.2c1.7-0.8,2.9-1.9,3.6-3.4
				c0.8-1.5,1.1-3.2,1.1-5.3c0-2-0.4-3.8-1.1-5.3c-0.8-1.5-2-2.7-3.7-3.5c-1.7-0.8-3.9-1.3-6.6-1.3h-10.8v45.4H343.1z M367.1,52.7
				l12.5,22.9h-7.2l-12.3-22.9H367.1z"/>
			<path d="M404.7,30.1v-5.5h38.2v5.5h-16v45.4h-6.2V30.1H404.7z"/>
			<path d="M452.5,75.6V24.7h17.2c4,0,7.2,0.7,9.8,2c2.6,1.4,4.4,3.2,5.7,5.6c1.2,2.4,1.8,5,1.8,8c0,3-0.6,5.7-1.8,8
				c-1.2,2.3-3.1,4.1-5.6,5.5c-2.5,1.3-5.8,2-9.7,2h-13.9v-5.6h13.7c2.7,0,4.9-0.4,6.6-1.2c1.7-0.8,2.9-1.9,3.6-3.4
				c0.8-1.5,1.1-3.2,1.1-5.3c0-2-0.4-3.8-1.1-5.3c-0.8-1.5-2-2.7-3.7-3.5c-1.7-0.8-3.9-1.3-6.6-1.3h-10.8v45.4H452.5z M476.4,52.7
				L489,75.6h-7.2l-12.3-22.9H476.4z"/>
			<path d="M499.3,75.6h-6.5l18.7-50.9h6.4l18.7,50.9h-6.5l-15.2-42.9h-0.4L499.3,75.6z M501.7,55.7h26.1v5.5h-26.1V55.7z"/>
			<path d="M560.3,75.6h-15.7V24.7h16.4c4.9,0,9.2,1,12.7,3c3.5,2,6.2,4.9,8.1,8.7s2.8,8.3,2.8,13.6c0,5.3-0.9,9.9-2.8,13.7
				c-1.9,3.8-4.6,6.8-8.3,8.8C569.8,74.5,565.4,75.6,560.3,75.6z M550.7,70.1h9.1c4.2,0,7.7-0.8,10.5-2.4c2.8-1.6,4.8-3.9,6.2-6.9
				c1.4-3,2-6.6,2-10.7c0-4.1-0.7-7.7-2-10.6c-1.3-3-3.3-5.3-6-6.9c-2.7-1.6-6-2.4-10-2.4h-9.8V70.1z"/>
			<path d="M601,24.7v50.9h-6.2V24.7H601z"/>
			<path d="M653.7,24.7v50.9h-6l-27.7-40h-0.5v40h-6.2V24.7h6l27.8,40.1h0.5V24.7H653.7z"/>
			<path d="M700.8,40.6c-0.5-1.7-1.3-3.2-2.2-4.5s-1.9-2.5-3.2-3.4c-1.2-0.9-2.6-1.7-4.1-2.2c-1.5-0.5-3.2-0.7-5.1-0.7
				c-3,0-5.8,0.8-8.2,2.3c-2.5,1.6-4.4,3.9-5.9,6.9c-1.5,3-2.2,6.8-2.2,11.2c0,4.4,0.7,8.1,2.2,11.2c1.5,3,3.5,5.3,6,6.9
				c2.5,1.6,5.4,2.3,8.5,2.3c2.9,0,5.5-0.6,7.7-1.9c2.2-1.3,4-3,5.2-5.3c1.3-2.3,1.9-5,1.9-8.1l1.9,0.4h-15.3v-5.5h19.4v5.5
				c0,4.2-0.9,7.8-2.7,10.9c-1.8,3.1-4.2,5.5-7.4,7.2c-3.1,1.7-6.7,2.5-10.8,2.5c-4.5,0-8.5-1.1-11.9-3.2c-3.4-2.1-6.1-5.1-8-9
				c-1.9-3.9-2.8-8.6-2.8-13.9c0-4,0.5-7.7,1.6-10.9c1.1-3.2,2.6-6,4.6-8.2c2-2.3,4.3-4,7.1-5.2c2.7-1.2,5.7-1.8,9-1.8
				c2.7,0,5.2,0.4,7.5,1.2c2.3,0.8,4.4,1.9,6.2,3.4c1.8,1.5,3.4,3.2,4.6,5.2c1.2,2,2.1,4.3,2.5,6.7H700.8z"/>
		</g>
		<g>
			<path d="M187.5,131.6v-29.1h9c1.8,0,3.4,0.4,4.8,1.1c1.3,0.8,2.3,1.8,3,3.1c0.7,1.3,1.1,2.8,1.1,4.5c0,1.7-0.4,3.2-1.1,4.5
				c-0.7,1.3-1.7,2.4-3,3.1c-1.3,0.8-2.9,1.1-4.7,1.1h-7.7v-1.6h7.7c1.5,0,2.8-0.3,3.8-0.9c1.1-0.6,1.9-1.4,2.4-2.5
				c0.6-1.1,0.9-2.3,0.9-3.7c0-1.4-0.3-2.6-0.9-3.7c-0.6-1.1-1.4-1.9-2.5-2.5c-1.1-0.6-2.3-0.9-3.8-0.9h-7.1v27.4H187.5z"/>
			<path d="M229.6,131.6v-21.8h1.7v3.4h0.2c0.5-1.1,1.3-2,2.4-2.7s2.4-1,3.8-1c0.2,0,0.3,0,0.5,0c0.2,0,0.3,0,0.4,0v1.7
				c-0.1,0-0.2,0-0.4,0s-0.3,0-0.6,0c-1.2,0-2.3,0.3-3.2,0.8c-0.9,0.5-1.7,1.2-2.2,2.2c-0.5,0.9-0.8,2-0.8,3.1v14.4H229.6z"/>
			<path d="M262.2,105.9c-0.4,0-0.7-0.1-1-0.4c-0.3-0.3-0.4-0.6-0.4-1s0.1-0.7,0.4-1c0.3-0.3,0.6-0.4,1-0.4c0.4,0,0.7,0.1,1,0.4
				c0.3,0.3,0.4,0.6,0.4,1s-0.1,0.7-0.4,1C262.9,105.7,262.5,105.9,262.2,105.9z M261.3,131.6v-21.8h1.7v21.8H261.3z"/>
			<path d="M304.2,109.7l-7.9,21.8h-2l-7.9-21.8h1.9l6.9,19.6h0.1l6.9-19.6H304.2z"/>
			<path d="M332.8,132c-1.3,0-2.4-0.3-3.5-0.8c-1-0.5-1.9-1.2-2.5-2.2c-0.6-1-0.9-2.1-0.9-3.5c0-0.9,0.2-1.7,0.5-2.4
				c0.3-0.7,0.8-1.3,1.5-1.8c0.7-0.5,1.5-0.9,2.6-1.2c1.1-0.3,2.3-0.6,3.8-0.8c1.1-0.1,2.1-0.3,3-0.4s1.6-0.3,2.1-0.6
				c0.5-0.3,0.7-0.7,0.7-1.3v-0.9c0-1.6-0.5-2.9-1.5-3.8c-1-0.9-2.4-1.4-4.1-1.4c-1.6,0-2.9,0.3-3.9,1s-1.8,1.6-2.2,2.6l-1.6-0.6
				c0.4-1,1-1.9,1.8-2.6c0.8-0.7,1.7-1.2,2.7-1.5c1-0.3,2.1-0.5,3.2-0.5c1,0,1.9,0.1,2.8,0.4c0.9,0.3,1.7,0.7,2.4,1.3
				s1.2,1.3,1.7,2.1c0.4,0.9,0.6,1.9,0.6,3.1v15.2h-1.7v-3.9h-0.1c-0.4,0.8-0.9,1.6-1.6,2.2s-1.4,1.2-2.4,1.6
				C335,131.8,333.9,132,332.8,132z M332.9,130.4c1.4,0,2.6-0.3,3.6-1c1.1-0.7,1.9-1.6,2.5-2.7s0.9-2.5,0.9-4v-3.2
				c-0.2,0.2-0.5,0.4-0.9,0.5s-0.9,0.3-1.4,0.4c-0.5,0.1-1.1,0.2-1.6,0.3c-0.6,0.1-1.1,0.2-1.6,0.2c-1.6,0.2-2.9,0.5-3.9,0.9
				c-1,0.4-1.7,0.9-2.2,1.5c-0.5,0.6-0.7,1.4-0.7,2.3c0,1.5,0.5,2.7,1.5,3.5C330.1,130,331.4,130.4,332.9,130.4z"/>
			<path d="M374.6,109.7v1.5h-9.5v-1.5H374.6z M368.3,104.5h1.7v21.9c0,0.9,0.2,1.6,0.5,2.2s0.8,1,1.4,1.3c0.6,0.3,1.2,0.4,1.8,0.4
				c0.3,0,0.6,0,0.8-0.1s0.5-0.1,0.7-0.2l0.4,1.6c-0.3,0.1-0.6,0.2-0.9,0.2s-0.7,0.1-1.1,0.1c-0.9,0-1.8-0.2-2.6-0.6
				c-0.8-0.4-1.5-1-2-1.8c-0.5-0.8-0.8-1.7-0.8-2.8V104.5z"/>
			<path d="M407.3,132c-2,0-3.7-0.5-5.1-1.5c-1.5-1-2.6-2.3-3.4-4c-0.8-1.7-1.2-3.6-1.2-5.8c0-2.2,0.4-4.1,1.2-5.8
				c0.8-1.7,1.9-3,3.3-4c1.4-1,3-1.5,4.8-1.5c1.2,0,2.4,0.2,3.5,0.7c1.1,0.5,2.1,1.2,2.9,2.1c0.8,0.9,1.5,2,2,3.3
				c0.5,1.3,0.7,2.8,0.7,4.4v1.1h-17.3v-1.6h15.5c0-1.6-0.3-3-1-4.3c-0.6-1.3-1.5-2.3-2.6-3c-1.1-0.7-2.4-1.1-3.7-1.1
				c-1.4,0-2.7,0.4-3.9,1.2s-2,1.9-2.7,3.3c-0.7,1.4-1,2.9-1,4.6v0.7c0,1.8,0.3,3.5,1,4.9c0.6,1.4,1.6,2.6,2.7,3.4s2.6,1.3,4.3,1.3
				c1.2,0,2.2-0.2,3.1-0.6s1.5-0.9,2.1-1.5c0.5-0.6,0.9-1.1,1.2-1.7l1.6,0.6c-0.3,0.7-0.8,1.5-1.5,2.2c-0.7,0.7-1.6,1.3-2.6,1.8
				S408.8,132,407.3,132z"/>
			<path d="M469.8,131.6v-29.1h1.8v27.4h14.2v1.6H469.8z"/>
			<path d="M510.7,105.9c-0.4,0-0.7-0.1-1-0.4c-0.3-0.3-0.4-0.6-0.4-1s0.1-0.7,0.4-1c0.3-0.3,0.6-0.4,1-0.4c0.4,0,0.7,0.1,1,0.4
				s0.4,0.6,0.4,1s-0.1,0.7-0.4,1S511,105.9,510.7,105.9z M509.8,131.6v-21.8h1.7v21.8H509.8z"/>
			<path d="M536.8,131.6v-21.8h1.7v3.3h0.2c0.4-1.1,1.1-2,2.2-2.6c1-0.6,2.3-1,3.7-1c1.6,0,2.9,0.4,3.8,1.1s1.7,1.8,2.1,3.1h0.2
				c0.4-1.3,1.2-2.3,2.3-3.1c1.1-0.8,2.5-1.2,4.1-1.2c2.1,0,3.7,0.7,4.8,2c1.1,1.3,1.7,3.2,1.7,5.5v14.6h-1.7v-14.6
				c0-1.8-0.4-3.2-1.3-4.3c-0.9-1-2.2-1.6-3.8-1.6c-1.8,0-3.2,0.6-4.1,1.7s-1.4,2.6-1.4,4.3v14.5h-1.7v-14.8c0-1.7-0.4-3.1-1.3-4.1
				c-0.9-1.1-2.1-1.6-3.8-1.6c-1.2,0-2.2,0.3-3,0.8s-1.5,1.3-1.9,2.2s-0.7,2-0.7,3.2v14.3H536.8z"/>
			<path d="M589.6,105.9c-0.4,0-0.7-0.1-1-0.4c-0.3-0.3-0.4-0.6-0.4-1s0.1-0.7,0.4-1c0.3-0.3,0.6-0.4,1-0.4c0.4,0,0.7,0.1,1,0.4
				s0.4,0.6,0.4,1s-0.1,0.7-0.4,1S590,105.9,589.6,105.9z M588.7,131.6v-21.8h1.7v21.8H588.7z"/>
			<path d="M623.4,109.7v1.5h-9.5v-1.5H623.4z M617.1,104.5h1.7v21.9c0,0.9,0.2,1.6,0.5,2.2s0.8,1,1.4,1.3c0.6,0.3,1.2,0.4,1.8,0.4
				c0.3,0,0.6,0,0.8-0.1s0.5-0.1,0.7-0.2l0.4,1.6c-0.3,0.1-0.6,0.2-0.9,0.2s-0.7,0.1-1.1,0.1c-0.9,0-1.8-0.2-2.6-0.6
				c-0.8-0.4-1.5-1-2-1.8c-0.5-0.8-0.8-1.7-0.8-2.8V104.5z"/>
			<path d="M656.1,132c-2,0-3.7-0.5-5.1-1.5c-1.5-1-2.6-2.3-3.4-4c-0.8-1.7-1.2-3.6-1.2-5.8c0-2.2,0.4-4.1,1.2-5.8
				c0.8-1.7,1.9-3,3.3-4c1.4-1,3-1.5,4.8-1.5c1.2,0,2.4,0.2,3.5,0.7c1.1,0.5,2.1,1.2,2.9,2.1c0.8,0.9,1.5,2,2,3.3
				c0.5,1.3,0.7,2.8,0.7,4.4v1.1h-17.3v-1.6h15.5c0-1.6-0.3-3-1-4.3c-0.6-1.3-1.5-2.3-2.6-3c-1.1-0.7-2.4-1.1-3.7-1.1
				c-1.4,0-2.7,0.4-3.9,1.2s-2,1.9-2.7,3.3c-0.7,1.4-1,2.9-1,4.6v0.7c0,1.8,0.3,3.5,1,4.9c0.6,1.4,1.6,2.6,2.7,3.4s2.6,1.3,4.3,1.3
				c1.2,0,2.2-0.2,3.1-0.6s1.5-0.9,2.1-1.5c0.5-0.6,0.9-1.1,1.2-1.7l1.6,0.6c-0.3,0.7-0.8,1.5-1.5,2.2c-0.7,0.7-1.6,1.3-2.6,1.8
				S657.6,132,656.1,132z"/>
			<path d="M696.3,132c-1.8,0-3.3-0.5-4.6-1.4c-1.3-1-2.3-2.3-3-4s-1.1-3.7-1.1-5.9c0-2.2,0.4-4.1,1.1-5.8c0.7-1.7,1.7-3,3-4
				c1.3-1,2.8-1.5,4.6-1.5c1.3,0,2.3,0.2,3.3,0.7c0.9,0.5,1.7,1.1,2.3,1.9c0.6,0.8,1.1,1.6,1.4,2.6h0.2v-12.1h1.7v29.1h-1.7v-4.8
				h-0.2c-0.4,0.9-0.8,1.8-1.5,2.6c-0.6,0.8-1.4,1.4-2.3,1.9C698.6,131.8,697.5,132,696.3,132z M696.4,130.4c1.5,0,2.7-0.4,3.8-1.3
				c1.1-0.8,1.9-2,2.4-3.5c0.6-1.5,0.8-3.1,0.8-5c0-1.9-0.3-3.5-0.8-5c-0.6-1.5-1.4-2.6-2.4-3.4c-1.1-0.8-2.3-1.3-3.8-1.3
				c-1.5,0-2.8,0.4-3.8,1.3s-1.9,2-2.4,3.5c-0.6,1.5-0.8,3.1-0.8,4.9c0,1.8,0.3,3.5,0.8,4.9s1.4,2.6,2.4,3.5
				S694.9,130.4,696.4,130.4z"/>
		</g>
	</g>
	<g>
		<g>
			<g>
				<path class="st0" d="M98.3,54.4c16.6,0.4,31.3,1.2,45.6,5c3.1,0.8,4.6,2.2,5,5.4c0.5,4,1,7.9,1,11.9c0,2.2-0.8,2.7-2.8,2.2
					c-17.8-4.8-36-5-54.2-4.5c-4.2,0.1-8.4,0.5-12.5,1.2c-7.2,1.2-10.7,5.8-9.8,13c0.3,2.6,0.5,5.2,0.5,7.9c0,5.2-2.4,8.7-7.3,10.4
					c-4.1,1.4-8.4,1.8-12.6,2.7c-5.5,1.2-11,2.7-15.7,6.1c-4.5,3.2-7.1,7.7-8.3,13c-0.2,0.7,0.1,1.8-1,1.9c-0.9,0.1-1.3-0.7-1.8-1.3
					c-5-7.2-5.9-14.8-1.9-22.6c4.1-8.2,10.8-13.4,20-14.9c3.8-0.6,7.7-1,11.5-2c9.1-2.3,13-7.7,11.7-17c-1.7-13,4.4-16.2,14.6-17.1
					C87,54.9,93.7,54.7,98.3,54.4z"/>
				<path class="st0" d="M113.4,83.5c10.8,0.2,21.6,1.3,32.1,4.2c3.7,1,4,1.4,3.1,5c-0.9,3.6-2.1,7.1-3.1,10.7
					c-0.6,2.1-1.8,2.7-3.9,2.1c-10-2.8-20.3-3.3-30.7-2.9c-3.5,0.2-7,0.7-10.3,1.7c-4.8,1.5-7.1,4.5-7.2,9.4
					c-0.1,1.9,0.1,3.9,0.3,5.8c0.8,8.2-2.4,13.2-10.2,15.9c-4.5,1.6-9.1,1.9-13.7,2.6c-5.5,0.9-10.2,3.2-13.3,8
					c-1.2,1.8-2.3,1.8-3.8,0.5c-1.9-1.7-3.1-3.6-3.4-6.3c-1.1-9.5,4.4-17.9,13.6-20.5c3.4-1,6.9-0.9,10.4-1.7
					c1.9-0.4,3.8-0.8,5.7-1.4c7.3-2.2,10.1-6.1,10.1-13.7c0-2.4-0.1-4.9-0.1-7.3c0.1-5.4,2.3-8.6,7.5-10.2
					C101.8,83.7,107.6,83.3,113.4,83.5z"/>
				<path class="st0" d="M78.4,151c-1.7,0-3.3,0-5,0c-0.7,0-1.5,0.2-1.9-0.5c-0.5-0.9,0.3-1.5,0.9-2c3.6-3.3,7.9-4.9,12.6-5.4
					c3.9-0.4,7.7-1,11.4-2.3c6.4-2.3,8.8-5.8,8.8-12.5c0-2.4-0.1-4.9-0.1-7.3c0-5,2.4-8.3,7.3-9.4c8.5-2,17-1.5,25.5,0.3
					c2.6,0.6,2.8,1.8,1.5,3.9c-7.1,11.4-16.5,20.3-28.4,26.7C100.8,148.1,89.9,150.8,78.4,151z"/>
			</g>
		</g>
		<g>
			<g>
				<path class="st1" d="M43.2,38c26.3,0,52.6,0,78.9,0c4.6,0,9.1-0.5,13.7-0.1c1.6,0.2,2.8,0.5,3.6,1.9c1.8,3.1,3.6,6.2,4.9,9.6
					c0.2,0.5,0.5,1.1,0.1,1.7c-0.5,0.6-1.2,0.4-1.9,0.2c-14.1-3.7-28.5-5-43.1-5.2c-6.4-0.1-12.8-0.7-19.2-0.4
					c-8.3,0.4-16.5,0.3-24.7,1.6c-7.8,1.2-11.1,5.6-10.2,13.5c0.3,2.7,0.6,5.3,0.1,8.1c-0.9,4.8-3.8,7.6-8,9.3
					c-4.3,1.8-8.8,2.8-13.6,3.2c-6.9,0.6-13,3.2-17.2,9.1c-0.4,0.5-0.5,1.5-1.4,1.2c-0.7-0.2-0.8-1.1-0.9-1.7
					C3.9,86,3.4,82,3.1,78.1c-0.2-2.7,1.4-3.3,3.7-3.2c8.5,0.4,16.9-1.1,25.1-3c1.8-0.4,4.7-0.8,4.4-3c-0.3-1.9-3-0.9-4.6-0.9
					c-8.2-0.1-16.4-0.1-24.5,0.1c-2.6,0-3.3-1-2.8-3.4c2.2-9.3,0.6-7.9,9.5-7.9c6.8-0.1,13.6,0,20.5,0c2.6,0,5-3.7,3.9-6
					c-0.6-1.3-1.9-0.9-2.9-0.9c-7.5,0-15,0-22.5,0c-3.6,0-3.6-0.3-2.5-3.7c0.7-2.4,2.3-4.3,3.3-6.4c0.8-1.6,2.2-2.2,3.9-2.1
					C26.1,38.2,34.7,37.9,43.2,38z"/>
				<path class="st1" d="M76.9,31c-17.3,0-34.7,0-52,0c-1,0-2.4,0.3-3-0.6c-0.8-1.2,0.5-2,1.1-2.7c3.2-4.1,6.7-6.4,12.7-6.2
					c16.5,0.6,33.1,0.2,49.7,0.2c12,0,23.9,0,35.9,0c2.6,0,9.6,5.3,10.4,7.7c0.4,1.1-0.1,1.5-1.1,1.6c-1,0.1-1.9,0.1-2.9,0.1
					C110.8,31,93.9,31,76.9,31z"/>
				<path class="st1" d="M112.6,14.6c-24.1,0-47.7,0-71.3,0C49.2,1.8,99.1,1.6,112.6,14.6z"/>
			</g>
		</g>
	</g>
</g>
</svg>
