<?xml version="1.0" encoding="utf-8"?>
<!-- Generator: Adobe Illustrator 21.0.2, SVG Export Plug-In . SVG Version: 6.00 Build 0)  -->
<svg version="1.1" id="Layer_1" xmlns="http://www.w3.org/2000/svg" xmlns:xlink="http://www.w3.org/1999/xlink" x="0px" y="0px"
	 viewBox="0 0 150 150" style="enable-background:new 0 0 150 150;" xml:space="preserve">
<style type="text/css">
	.st0{fill:#FFFFFF;}
</style>
<g>
	<g>
		<g>
			<g>
				<path class="st0" d="M96.3,51.8c16.6,0.4,31.3,1.2,45.6,5c3.1,0.8,4.6,2.2,5,5.4c0.5,4,1,7.9,1,11.9c0,2.2-0.8,2.7-2.8,2.2
					c-17.8-4.8-36-5-54.2-4.5c-4.2,0.1-8.4,0.5-12.5,1.2c-7.2,1.2-10.7,5.8-9.8,13c0.3,2.6,0.5,5.2,0.5,7.9c0,5.2-2.4,8.7-7.3,10.4
					c-4.1,1.4-8.4,1.8-12.6,2.7c-5.5,1.2-11,2.7-15.7,6.1c-4.5,3.2-7.1,7.7-8.3,13c-0.2,0.7,0.1,1.8-1,1.9c-0.9,0.1-1.3-0.7-1.8-1.3
					c-5-7.2-5.9-14.8-1.9-22.6c4.1-8.2,10.8-13.4,20-14.9c3.8-0.6,7.7-1,11.5-2c9.1-2.3,13-7.7,11.7-17c-1.7-13,4.4-16.2,14.6-17.1
					C85,52.3,91.7,52.1,96.3,51.8z"/>
				<path class="st0" d="M111.4,80.9c10.8,0.2,21.6,1.3,32.1,4.2c3.7,1,4,1.4,3.1,5c-0.9,3.6-2.1,7.1-3.1,10.7
					c-0.6,2.1-1.8,2.7-3.9,2.1c-10-2.8-20.3-3.3-30.7-2.9c-3.5,0.2-7,0.7-10.3,1.7c-4.8,1.5-7.1,4.5-7.2,9.4
					c-0.1,1.9,0.1,3.9,0.3,5.8c0.8,8.2-2.4,13.2-10.2,15.9c-4.5,1.6-9.1,1.9-13.7,2.6c-5.5,0.9-10.2,3.2-13.3,8
					c-1.2,1.8-2.3,1.8-3.8,0.5c-1.9-1.7-3.1-3.6-3.4-6.3c-1.1-9.5,4.4-17.9,13.6-20.5c3.4-1,6.9-0.9,10.4-1.7
					c1.9-0.4,3.8-0.8,5.7-1.3c7.3-2.2,10.1-6.1,10.1-13.7c0-2.4-0.1-4.9-0.1-7.3c0.1-5.4,2.3-8.6,7.5-10.2
					C99.8,81.1,105.6,80.7,111.4,80.9z"/>
				<path class="st0" d="M76.4,148.4c-1.7,0-3.3,0-5,0c-0.7,0-1.5,0.2-1.9-0.5c-0.5-0.9,0.3-1.5,0.9-2c3.6-3.3,7.9-4.9,12.6-5.4
					c3.9-0.4,7.7-1,11.4-2.3c6.4-2.3,8.8-5.8,8.8-12.5c0-2.4-0.1-4.9-0.1-7.3c0-5,2.4-8.3,7.3-9.4c8.5-2,17-1.5,25.5,0.3
					c2.6,0.6,2.8,1.8,1.5,3.9c-7.1,11.4-16.5,20.3-28.4,26.7C98.8,145.5,87.9,148.2,76.4,148.4z"/>
			</g>
		</g>
		<g>
			<g>
				<path class="st0" d="M41.2,35.3c26.3,0,52.6,0,78.9,0c4.6,0,9.1-0.5,13.7-0.1c1.6,0.2,2.8,0.5,3.6,1.9c1.8,3.1,3.6,6.2,4.9,9.6
					c0.2,0.5,0.5,1.1,0.1,1.7c-0.5,0.6-1.2,0.4-1.9,0.2c-14.1-3.7-28.5-5-43.1-5.2c-6.4-0.1-12.8-0.7-19.2-0.4
					c-8.3,0.4-16.5,0.3-24.7,1.6c-7.8,1.2-11.1,5.6-10.2,13.5c0.3,2.7,0.6,5.3,0.1,8.1c-0.9,4.8-3.8,7.6-8,9.3
					c-4.3,1.8-8.8,2.8-13.6,3.2C14.9,79.4,8.8,82,4.6,88c-0.4,0.5-0.5,1.5-1.4,1.2c-0.7-0.2-0.8-1.1-0.9-1.7
					c-0.4-4-0.9-7.9-1.2-11.9c-0.2-2.7,1.4-3.3,3.7-3.2c8.5,0.4,16.9-1.1,25.1-3c1.8-0.4,4.7-0.8,4.4-3c-0.3-1.9-3-0.9-4.6-0.9
					c-8.2-0.1-16.4-0.1-24.5,0.1c-2.6,0-3.3-1-2.8-3.4c2.2-9.3,0.6-7.9,9.5-7.9c6.8-0.1,13.6,0,20.5,0c2.6,0,5-3.7,3.9-6
					c-0.6-1.3-1.9-0.9-2.9-0.9c-7.5,0-15,0-22.5,0c-3.6,0-3.6-0.3-2.5-3.7c0.7-2.4,2.3-4.3,3.3-6.4c0.8-1.6,2.2-2.2,3.9-2.1
					C24.1,35.6,32.7,35.3,41.2,35.3z"/>
				<path class="st0" d="M74.9,28.4c-17.3,0-34.7,0-52,0c-1,0-2.4,0.3-3-0.6c-0.8-1.2,0.5-2,1.1-2.7c3.2-4.1,6.7-6.4,12.7-6.2
					C50.3,19.5,66.8,19,83.4,19c12,0,23.9,0,35.9,0c2.6,0,9.6,5.3,10.4,7.7c0.4,1.1-0.1,1.5-1.1,1.6c-1,0.1-1.9,0.1-2.9,0.1
					C108.8,28.4,91.9,28.4,74.9,28.4z"/>
				<path class="st0" d="M110.6,12c-24.1,0-47.7,0-71.3,0C47.2-0.8,97.1-1,110.6,12z"/>
			</g>
		</g>
	</g>
</g>
</svg>
